<svg width="29" height="32" viewBox="0 0 29 32" fill="none" xmlns="http://www.w3.org/2000/svg">
<path d="M11.0159 1.5C11.1866 0.629412 11.9321 0 12.797 0H16.1998C17.0647 0 17.8102 0.629412 17.9809 1.5L18.806 5.61765C19.6083 5.97059 20.3594 6.42353 21.0423 6.95882L24.9003 5.63529C25.7197 5.35294 26.6188 5.70588 27.0513 6.48235L28.7527 9.52941C29.1852 10.3059 29.0315 11.2824 28.3828 11.8765L25.3499 14.6647C25.4011 15.1 25.4238 15.5471 25.4238 16C25.4238 16.4529 25.3954 16.9 25.3499 17.3353L28.3885 20.1294C29.0372 20.7235 29.1852 21.7059 28.7584 22.4765L27.057 25.5235C26.6245 26.2941 25.7254 26.6529 24.906 26.3706L21.048 25.0471C20.3594 25.5824 19.6083 26.0294 18.8117 26.3882L17.9923 30.5C17.8159 31.3765 17.0704 32 16.2112 32H12.8084C11.9434 32 11.198 31.3706 11.0273 30.5L10.2079 26.3882C9.40555 26.0353 8.66011 25.5824 7.97158 25.0471L4.09646 26.3706C3.27706 26.6529 2.37798 26.3 1.94552 25.5235L0.244106 22.4765C-0.188359 21.7 -0.0347204 20.7235 0.613978 20.1294L3.65262 17.3353C3.6014 16.9 3.57864 16.4529 3.57864 16C3.57864 15.5471 3.60709 15.1 3.65262 14.6647L0.613978 11.8706C-0.0347204 11.2765 -0.182669 10.2941 0.244106 9.52353L1.94552 6.47647C2.37798 5.7 3.27706 5.34706 4.09646 5.62941L7.95451 6.95294C8.64304 6.41765 9.39417 5.97059 10.1908 5.61176L11.0159 1.5ZM14.4984 20.7059C17.0135 20.6941 19.045 18.5824 19.0336 15.9824C19.0222 13.3824 16.9794 11.2824 14.4643 11.2941C11.9491 11.3059 9.91768 13.4176 9.92906 16.0176C9.94044 18.6176 11.9833 20.7176 14.4984 20.7059Z" fill="white"/>
</svg>
