<svg width="20" height="17" viewBox="0 0 20 17" fill="none" xmlns="http://www.w3.org/2000/svg">
<path d="M14.8008 1.82184C13.7344 1.82184 12.7305 2.31904 12.1055 3.15785L10.7617 4.9645C10.5859 5.19982 10.3047 5.34025 10.0039 5.34025C9.70313 5.34025 9.42188 5.19982 9.24609 4.9645L7.90234 3.15785C7.27734 2.31904 6.27344 1.82184 5.20703 1.82184C3.37109 1.82184 1.88281 3.26792 1.88281 5.0518C1.88281 6.94575 3.13281 8.78656 4.54297 10.4528C6.14844 12.3505 8.11328 14.0205 9.46094 15.0188C9.58594 15.1098 9.76953 15.1782 10.0078 15.1782C10.2461 15.1782 10.4297 15.1098 10.5547 15.0188C11.9023 14.0205 13.8672 12.3467 15.4727 10.4528C16.8867 8.78656 18.1328 6.94575 18.1328 5.0518C18.1328 3.26792 16.6445 1.82184 14.8086 1.82184H14.8008ZM10.5859 2.09132C11.5625 0.778076 13.1328 0 14.8008 0C17.6719 0 20 2.26211 20 5.0518C20 7.6555 18.3242 9.94418 16.9102 11.6104C15.1875 13.6448 13.1094 15.4097 11.6836 16.4648C11.2031 16.8216 10.6094 17 10 17C9.39062 17 8.79687 16.8216 8.31641 16.4648C6.89062 15.4097 4.8125 13.6448 3.08984 11.6142C1.67578 9.94798 0 7.6555 0 5.0518C0 2.26211 2.32813 0 5.19922 0C6.86719 0 8.4375 0.778076 9.41406 2.09132L10 2.87698L10.5859 2.09132Z" fill="white"/>
</svg>
