<svg width="22" height="30" viewBox="0 0 22 30" fill="none" xmlns="http://www.w3.org/2000/svg">
<path d="M16.987 17.0566C18.3906 15.5391 19.25 13.5 19.25 11.25C19.25 6.5918 15.5547 2.8125 11 2.8125C6.44531 2.8125 2.75 6.5918 2.75 11.25C2.75 13.5 3.60938 15.5391 5.01302 17.0566C6.23333 18.3691 7.58542 20.2207 8.06667 22.5H13.9333C14.4146 20.2148 15.7667 18.3691 16.987 17.0566ZM18.9807 18.9902C17.6286 20.4492 16.5 22.2305 16.5 24.2402V25.3125C16.5 27.9023 14.449 30 11.9167 30H10.0833C7.55104 30 5.5 27.9023 5.5 25.3125V24.2402C5.5 22.2305 4.37135 20.4492 3.01927 18.9902C1.14583 16.9746 0 14.25 0 11.25C0 5.03906 4.92708 0 11 0C17.0729 0 22 5.03906 22 11.25C22 14.25 20.8542 16.9746 18.9807 18.9902ZM8.25 10.7812C8.25 11.5605 7.63698 12.1875 6.875 12.1875C6.11302 12.1875 5.5 11.5605 5.5 10.7812C5.5 7.93359 7.75729 5.625 10.5417 5.625C11.3036 5.625 11.9167 6.25195 11.9167 7.03125C11.9167 7.81055 11.3036 8.4375 10.5417 8.4375C9.27552 8.4375 8.25 9.48633 8.25 10.7812Z" fill="white"/>
</svg>
