<svg width="22" height="23" viewBox="0 0 22 23" fill="none" xmlns="http://www.w3.org/2000/svg">
<path d="M8.80001 11.5L7.13361 13.1664C6.60204 12.9597 6.02829 12.85 5.42501 12.85C2.81361 12.85 0.700012 14.9636 0.700012 17.575C0.700012 20.1864 2.81361 22.3 5.42501 22.3C8.03642 22.3 10.15 20.1864 10.15 17.575C10.15 16.9717 10.0361 16.398 9.83361 15.8664L21.76 3.94C22.0595 3.64047 22.0595 3.15953 21.76 2.86C20.5661 1.66609 18.6339 1.66609 17.44 2.86L11.5 8.8L9.83361 7.13359C10.0403 6.60203 10.15 6.02828 10.15 5.425C10.15 2.81359 8.03642 0.700001 5.42501 0.700001C2.81361 0.700001 0.700012 2.81359 0.700012 5.425C0.700012 8.03641 2.81361 10.15 5.42501 10.15C6.02829 10.15 6.60204 10.0361 7.13361 9.83359L8.80001 11.5ZM12.9302 15.6302L17.44 20.14C18.6339 21.3339 20.5661 21.3339 21.76 20.14C22.0595 19.8405 22.0595 19.3595 21.76 19.06L15.6302 12.9302L12.9302 15.6302ZM3.40001 5.425C3.40001 4.30703 4.30704 3.4 5.42501 3.4C6.54298 3.4 7.45001 4.30703 7.45001 5.425C7.45001 6.54297 6.54298 7.45 5.42501 7.45C4.30704 7.45 3.40001 6.54297 3.40001 5.425ZM5.42501 15.55C6.54298 15.55 7.45001 16.457 7.45001 17.575C7.45001 18.693 6.54298 19.6 5.42501 19.6C4.30704 19.6 3.40001 18.693 3.40001 17.575C3.40001 16.457 4.30704 15.55 5.42501 15.55Z" fill="white"/>
</svg>
