<svg width="30" height="29" viewBox="0 0 30 29" fill="none" xmlns="http://www.w3.org/2000/svg">
<path d="M24.3762 11.7795C24.3762 14.3789 23.5031 16.7802 22.0323 18.7283L29.4507 25.9036C30.1831 26.6115 30.1831 27.7612 29.4507 28.4691C28.7182 29.177 27.5287 29.177 26.7962 28.4691L19.3779 21.2938C17.3622 22.7152 14.8777 23.559 12.1881 23.559C5.45534 23.559 0 18.2866 0 11.7795C0 5.27247 5.45534 0 12.1881 0C18.9208 0 24.3762 5.27247 24.3762 11.7795ZM12.1881 19.9346C16.8465 19.9346 20.626 16.2818 20.626 11.7795C20.626 7.27725 16.8465 3.62447 12.1881 3.62447C7.52966 3.62447 3.75018 7.27725 3.75018 11.7795C3.75018 16.2818 7.52966 19.9346 12.1881 19.9346Z" fill="white"/>
</svg>
