<svg width="31" height="31" viewBox="0 0 31 31" fill="none" xmlns="http://www.w3.org/2000/svg">
<path d="M9.12385 0.105995C9.55201 -0.0733557 10.038 -0.0212863 10.4257 0.233276L15.5058 3.60045L20.5859 0.233276C20.9735 -0.0212863 21.4596 -0.0675702 21.8877 0.105995C22.3159 0.279561 22.6168 0.661405 22.7093 1.11268L23.9186 7.08333L29.8897 8.2925C30.341 8.38507 30.7229 8.69749 30.8965 9.11983C31.0701 9.54217 31.0238 10.0339 30.7692 10.4216L27.4018 15.5013L30.7692 20.5809C31.0238 20.9686 31.0701 21.4545 30.8965 21.8827C30.7229 22.3108 30.341 22.6232 29.8897 22.71L23.9128 23.9134L22.7093 29.8898C22.6168 30.3411 22.3043 30.7229 21.8819 30.8965C21.4596 31.0701 20.9678 31.0238 20.5801 30.7692L15.5 27.4021L10.4199 30.7692C10.0322 31.0238 9.54622 31.0701 9.11806 30.8965C8.6899 30.7229 8.37746 30.3411 8.29067 29.8898L7.08718 23.9134L1.11026 22.7042C0.658955 22.6116 0.27708 22.2992 0.1035 21.8769C-0.0700791 21.4545 -0.0237912 20.9628 0.230792 20.5751L3.59823 15.5013L0.230792 10.4216C-0.0237912 10.0339 -0.0700791 9.54796 0.1035 9.11983C0.27708 8.6917 0.658955 8.37928 1.11026 8.2925L7.08718 7.08911L8.29645 1.11268C8.38903 0.661405 8.70147 0.279561 9.12385 0.105995ZM10.8249 15.5013C10.8249 12.9325 12.9079 10.8497 15.4769 10.8497C18.0458 10.8497 20.1288 12.9325 20.1288 15.5013C20.1288 18.07 18.0458 20.1528 15.4769 20.1528C12.9079 20.1528 10.8249 18.07 10.8249 15.5013ZM22.9061 15.5013C22.9061 11.3993 19.5791 8.07265 15.4769 8.07265C11.3746 8.07265 8.04765 11.3993 8.04765 15.5013C8.04765 19.6032 11.3746 22.9299 15.4769 22.9299C19.5791 22.9299 22.9061 19.6032 22.9061 15.5013Z" fill="white"/>
</svg>
